<svg version="1" xmlns="http://www.w3.org/2000/svg" width="346.667" height="346.667" viewBox="0 0 260.000000 260.000000"><path d="M70.2.8c-2.8.4-5.2 5-4.2 7.7.4 1.1 11.9 12.8 25.5 26C142.2 83.5 144.6 86 148 93c2.8 5.5 3.3 7.8 3.6 15 .1 4.7-.1 10.7-.6 13.5-.4 2.7-1.1 8.1-1.4 12-1.5 15.3-2.4 23.2-3.1 28.5-.2 1.4-.6 5.4-.9 9-.4 3.6-.9 9-1.2 12-.3 3-.6 7.1-.8 9-.5 7.2-.6 7.2-28.5 23.4-14.8 8.6-28.2 15.9-29.9 16.2-4 .8-10-2.1-10.8-5.2-1.7-6.6 3.8-11.9 26.9-25.8 9.7-6 18.3-11.6 19-12.7 1-1.4 1.2-3.4.6-7.6-.5-3.2-1.1-8.3-1.4-11.3-.3-3-.8-6.6-1-8-.3-1.4-.7-4.8-1.1-7.5-.8-6.9-1.4-10.7-2-12.7-.5-1.7-12.9-9.8-15-9.8-.5 0-1.8-.8-2.9-1.6-1.9-1.5-1.7-1.6 2.5-1.1 5.1.6 7.6-.7 8.5-4.4 1-4-2.1-7-7.6-7.4-21-1.4-45.1 18.8-47.2 39.7-.8 7.5 1.2 14.7 8.1 28.6 3.7 7.7 6.6 14.9 6.5 16.4-.1 4-2.7 7.5-7.3 9.8-7.1 3.6-7.3 3.5-21.7-15.4l-13.1-17.4-4.7-14.7c-2.5-8.1-4.9-16.6-5.2-18.9-1.6-12.9-.5-25 3.8-42.1C23 91.3 23.4 88.4 23.4 81c0-9.2-.7-11-6.5-16.8C11.3 58.5 8.3 57.7 5 61c-3 3-2.5 5.4 2.4 10.9 4.3 4.9 4.4 5.1 4 10.8-.4 6.3-.5 6.7-2.3 13.3-.7 2.5-1.5 5.4-1.7 6.5-.2 1.1-.8 4-1.4 6.5-2.6 11.7-3.4 31.8-1.6 40.6 1.3 5.8 7.6 27 9.9 32.9.6 1.6 6.1 9.2 12.1 17 6 7.7 12.5 16 14.4 18.5 1.9 2.5 4.6 5.1 6.1 5.9 3 1.6 8.4 2.1 12.2 1 2.5-.6 2.7-.4 3.3 3 1.7 11.1 14.4 18.5 26.3 15.5 3-.8 14.5-6.8 27.9-14.7 12.6-7.3 25-14.6 27.6-16 5.4-3.1 9.3-7.8 10.2-12.2 1.2-6.3 1.7-9.9 1.8-14.1 0-2.4.2-4.4.4-4.4.1 0 9.4 14.7 20.6 32.7 20.6 33.3 25.3 39.4 32.2 42.7 8 3.8 20 .7 26-6.8 2.8-3.4 3.1-4.5 3.1-10.4 0-6.1-1.2-9.9-5.2-17.3-.2-.3 1.6-.5 3.9-.4 7.9.4 15.4-4.3 18.8-11.9 3.4-7.5.7-14.1-11-26.5-7.9-8.4-7.9-8.5-5.7-10 2.9-2 4.3-3.7 6.8-8.5 1.7-3.2 2-5.1 1.6-9.8-.9-9.7 4.1-5.5-76.7-65.7-10.7-8-21.1-16.1-23.1-18.1-2-1.9-14.1-13.7-27-26.1C70.1-3.2 73.9.2 70.2.8zm136.4 131.1c20.7 15.5 28.4 21.8 28.8 23.7.9 3.4-2.2 8.8-5.4 9.2-2.4.4-3.9-1-17-15.4-5.4-5.9-24.7-26.9-27.5-30-8.1-8.7-9.8-10.7-8.5-9.7.8.5 14.2 10.5 29.6 22.2zm-41.6-8c0 .4 6.2 12 13.8 25.7 7.6 13.7 15.2 27.4 16.9 30.4 1.6 3 7 12.7 12 21.5 4.9 8.8 10.9 19.6 13.3 24 2.3 4.4 4.6 8.4 5 9 .4.5 1 2.5 1.2 4.3.9 6.7-8 10.8-14.2 6.5-3.9-2.7-4.6-3.5-10.3-12.9-3-4.9-14-22.8-24.6-39.7l-19.2-30.9.6-5.1c.3-2.9.8-7.2 1-9.7.3-2.5.8-6.3 1-8.5 1.2-11.9 1.8-15.5 2.6-15.5.5 0 .9.4.9.9zm-73.5 16.9c5.1 1.6 12.5 5.5 12.6 6.6 0 .6.2 2 .4 3.1.3 1.1.6 4 .9 6.5.3 2.5 1 7.9 1.6 12 .6 4.1 1.3 8.5 1.4 9.7.2 1.2-.4 2.9-1.3 3.6-2.3 2-25.2 15.7-26.2 15.7-.5 0-.9-.6-.9-1.4 0-.7-2.1-5.5-4.6-10.7-8.7-17.6-9.6-20.2-9.7-25.4 0-8.1 4-14.4 12.3-19.4 3.6-2.2 7.2-2.3 13.5-.3zm114.1 18.7c6.1 6.6 12.4 13.3 13.9 15 1.5 1.6 6.8 7.4 11.7 12.8 15.7 16.8 15.9 17.3 11.4 21.6-4.1 3.9-9.5 1.9-18.6-7.1-6.4-6.4-10.9-13.9-33.3-55.3l-3.8-7 3.8 4c2 2.2 8.7 9.4 14.9 16z"/></svg>